<svg width="101" height="113" viewBox="0 0 101 113" fill="none" xmlns="http://www.w3.org/2000/svg">
<path fill-rule="evenodd" clip-rule="evenodd" d="M25.9659 26.5059C25.9659 32.6442 27.5114 37.627 30.6023 41.4544C33.6932 45.2096 38.233 47.8093 44.2216 49.2536L55.4261 52.07C58.3239 52.7199 60.4167 53.8754 61.7045 55.5363C62.9924 57.125 63.6364 59.2915 63.6364 62.0357C63.6364 65.2131 62.4129 67.7767 59.9659 69.7265C57.5833 71.6041 54.3314 72.5429 50.2102 72.5429C46.2822 72.5429 43.1591 71.6041 40.8409 69.7265C38.5871 67.7767 37.428 65.1409 37.3636 61.819C37.3636 61.819 37.9432 55.5363 31.5897 55.5363C25.2361 55.5363 25 61.819 25 61.819C25.1288 66.513 26.2235 70.5931 28.2841 74.0594C30.4091 77.5258 33.339 80.2338 37.0739 82.1836C40.8087 84.0612 45.1553 85 50.1136 85C55.3295 85 59.8693 84.0251 63.733 82.0753C67.661 80.0533 70.6875 77.2008 72.8125 73.5178C74.9375 69.8349 76 65.5742 76 60.7358C76 54.8142 74.5189 50.1202 71.5568 46.6539C68.5947 43.1154 64.0871 40.624 58.0341 39.1797L46.9261 36.3633C43.964 35.5689 41.7746 34.3774 40.358 32.7886C39.0758 31.2138 38.4015 29.1196 38.335 26.5059H25.9659ZM29.1534 14.2655C28.3928 15.5321 27.7683 16.8681 27.2799 18.2734H41.7102C44.0284 16.3236 47.0871 15.3487 50.8864 15.3487C54.3636 15.3487 57.1326 16.3236 59.1932 18.2734C61.2538 20.151 62.3485 22.7869 62.4773 26.181C62.4773 26.181 62.4559 32.7886 69.1528 32.7886C74.8409 32.7886 74.8409 26.181 74.8409 26.181C74.7121 21.4148 73.6496 17.2985 71.6534 13.8322C69.7216 10.3659 66.9848 7.69396 63.4432 5.81638C59.9659 3.93879 55.8447 3 51.0795 3C46.1212 3 41.7424 4.01101 37.9432 6.03302C34.2083 7.98283 31.2784 10.727 29.1534 14.2655Z" fill="white"/>
<path d="M41.5176 102.198H39.028V86.4848H41.5176V102.198Z" fill="white"/>
<path d="M46.6815 102.198H44.1919V86.4848H46.6815V102.198Z" fill="white"/>
<path d="M52.3391 102.473C51.2692 102.473 50.4188 102.177 49.7878 101.586C49.1706 100.98 48.862 100.192 48.862 99.2202C48.862 98.2627 49.1843 97.5024 49.829 96.9392C50.4874 96.3619 51.4201 96.024 52.6272 95.9255L55.6723 95.672V95.4397C55.6723 94.961 55.5831 94.5808 55.4048 94.2992C55.2402 94.0036 55.0002 93.7924 54.6847 93.6656C54.3692 93.5248 53.9989 93.4544 53.5736 93.4544C52.8329 93.4544 52.2637 93.6093 51.8659 93.9191C51.4681 94.2148 51.2692 94.6371 51.2692 95.1863H49.1294C49.1294 94.426 49.3146 93.7712 49.685 93.2221C50.069 92.6589 50.604 92.2224 51.2898 91.9127C51.9894 91.6029 52.7918 91.448 53.6971 91.448C54.6161 91.448 55.4048 91.617 56.0632 91.9549C56.7216 92.2788 57.2291 92.7716 57.5858 93.4333C57.9424 94.081 58.1207 94.8906 58.1207 95.8621V102.198H55.9192L55.734 100.656C55.5145 101.191 55.0893 101.628 54.4584 101.966C53.8411 102.304 53.1347 102.473 52.3391 102.473ZM53.1416 100.53C53.9234 100.53 54.5407 100.304 54.9933 99.8538C55.4597 99.4032 55.6929 98.7767 55.6929 97.9741V97.425L53.5736 97.5939C52.7918 97.6643 52.2363 97.8333 51.9071 98.1008C51.5779 98.3543 51.4133 98.6922 51.4133 99.1146C51.4133 99.5792 51.5641 99.9312 51.8659 100.171C52.1677 100.41 52.5929 100.53 53.1416 100.53Z" fill="white"/>
<path d="M63.0968 102.198H60.5867V91.7648H62.9117L63.1174 93.1165C63.4329 92.5956 63.8787 92.1872 64.4548 91.8916C65.0446 91.5959 65.6824 91.448 66.3683 91.448C67.6439 91.448 68.6041 91.8352 69.2488 92.6096C69.9072 93.384 70.2364 94.44 70.2364 95.7776V102.198H67.7262V96.3901C67.7262 95.5171 67.5342 94.8695 67.1501 94.4471C66.7661 94.0106 66.2448 93.7924 65.5864 93.7924C64.8046 93.7924 64.1942 94.0458 63.7552 94.5527C63.3163 95.0595 63.0968 95.7354 63.0968 96.5802V102.198Z" fill="white"/>
<path d="M72.106 96.9603C72.106 95.8903 72.3186 94.9399 72.7438 94.1092C73.1827 93.2784 73.7794 92.6308 74.5338 92.1661C75.302 91.6874 76.1867 91.448 77.188 91.448C78.5734 91.448 79.705 91.8212 80.5829 92.5674C81.4745 93.2996 81.9888 94.2922 82.126 95.5453H79.6159C79.465 94.9539 79.1838 94.5104 78.7723 94.2147C78.3745 93.905 77.8738 93.7501 77.2703 93.7501C76.7491 93.7501 76.2827 93.8839 75.8712 94.1514C75.4734 94.4048 75.1648 94.7709 74.9453 95.2496C74.7259 95.7283 74.6161 96.2986 74.6161 96.9603C74.6161 97.6221 74.719 98.1923 74.9248 98.6711C75.1305 99.1498 75.4254 99.5229 75.8095 99.7904C76.2073 100.044 76.6736 100.171 77.2086 100.171C77.8395 100.171 78.3608 100.016 78.7723 99.7059C79.1975 99.3962 79.4787 98.9527 79.6159 98.3754H82.1466C82.0368 99.192 81.7557 99.9101 81.303 100.53C80.8641 101.135 80.2948 101.614 79.5953 101.966C78.8957 102.304 78.1002 102.473 77.2086 102.473C76.1798 102.473 75.2814 102.247 74.5132 101.797C73.7451 101.332 73.1484 100.692 72.7232 99.8749C72.3117 99.0442 72.106 98.0727 72.106 96.9603Z" fill="white"/>
<path fill-rule="evenodd" clip-rule="evenodd" d="M7.70533 91.0464C7.70533 92.2408 8.03387 93.2103 8.69094 93.9551C9.34801 94.6857 10.3131 95.1916 11.5861 95.4726L13.968 96.0206C14.584 96.1471 15.0289 96.3719 15.3027 96.6951C15.5765 97.0042 15.7134 97.4258 15.7134 97.9597C15.7134 98.578 15.4533 99.0768 14.9331 99.4562C14.4266 99.8216 13.7353 100.004 12.8592 100.004C12.0242 100.004 11.3603 99.8216 10.8675 99.4562C10.3884 99.0768 10.142 98.564 10.1283 97.9176C10.1283 97.9176 10.2515 96.6951 8.90084 96.6951C7.5502 96.6951 7.5 97.9176 7.5 97.9176C7.52738 98.8309 7.76009 99.6248 8.19814 100.299C8.64987 100.974 9.27272 101.501 10.0667 101.88C10.8606 102.245 11.7846 102.428 12.8387 102.428C13.9475 102.428 14.9126 102.238 15.7339 101.859C16.5689 101.466 17.2123 100.911 17.664 100.194C18.1158 99.4773 18.3416 98.6483 18.3416 97.7068C18.3416 96.5546 18.0268 95.6412 17.3971 94.9668C16.7674 94.2783 15.8092 93.7935 14.5224 93.5124L12.1611 92.9644C11.5314 92.8099 11.066 92.578 10.7648 92.2689C10.4922 91.9625 10.3489 91.555 10.3348 91.0464H7.70533ZM8.38294 88.6647C8.22124 88.9111 8.08849 89.1711 7.98467 89.4445H11.0523C11.5451 89.0652 12.1953 88.8755 13.003 88.8755C13.7422 88.8755 14.3308 89.0652 14.7688 89.4445C15.2069 89.8099 15.4396 90.3228 15.467 90.9832C15.467 90.9832 15.4624 92.2689 16.8861 92.2689C18.0952 92.2689 18.0952 90.9832 18.0952 90.9832C18.0679 90.0558 17.842 89.2548 17.4176 88.5804C17.007 87.9059 16.4252 87.386 15.6723 87.0207C14.9331 86.6553 14.057 86.4727 13.044 86.4727C11.99 86.4727 11.0591 86.6694 10.2515 87.0628C9.45752 87.4422 8.83467 87.9762 8.38294 88.6647Z" fill="white"/>
<path d="M32.0811 102.473C31.0798 102.473 30.1882 102.24 29.4063 101.776C28.6382 101.297 28.0346 100.649 27.5957 99.8327C27.1568 99.0019 26.9373 98.0515 26.9373 96.9815C26.9373 95.8973 27.1499 94.9399 27.5751 94.1092C28.0004 93.2784 28.597 92.6308 29.3652 92.1661C30.1333 91.6874 31.0112 91.448 31.9988 91.448C33.0275 91.448 33.9123 91.6733 34.653 92.1239C35.3937 92.5604 35.9629 93.1728 36.3607 93.9613C36.7722 94.7498 36.9779 95.6931 36.9779 96.7914V97.5728H34.4884H29.3306C29.4043 98.3905 29.6285 99.0312 30.003 99.4947C30.4831 100.072 31.1895 100.361 32.1222 100.361C32.8081 100.361 33.3704 100.227 33.8094 99.9594C34.262 99.6919 34.5569 99.3117 34.6941 98.8189H37.0191C36.7996 99.9594 36.251 100.853 35.3731 101.501C34.5089 102.149 33.4116 102.473 32.0811 102.473Z" fill="white"/>
<path d="M26.0534 91.7648V93.9191H24.0988V102.198H21.5886V93.9191H19.634V91.7648H21.5886V88.5124H24.0988V91.7648H26.0534Z" fill="white"/>
<path fill-rule="evenodd" clip-rule="evenodd" d="M88.562 102.473C87.5607 102.473 86.6691 102.24 85.8872 101.776C85.1191 101.297 84.5156 100.649 84.0766 99.8327C83.6377 99.0019 83.4182 98.0515 83.4182 96.9815C83.4182 95.8973 83.6308 94.9399 84.0561 94.1092C84.4813 93.2784 85.0779 92.6308 85.8461 92.1661C86.6142 91.6874 87.4921 91.448 88.4797 91.448C89.5084 91.448 90.3932 91.6733 91.1339 92.1239C91.8746 92.5604 92.4438 93.1728 92.8416 93.9613C93.2531 94.7498 93.4588 95.6931 93.4588 96.7914V97.5728L85.8132 97.5913C85.8887 98.4002 86.1122 99.0347 86.4839 99.4947C86.964 100.072 87.6704 100.361 88.6031 100.361C89.289 100.361 89.8513 100.227 90.2903 99.9594C90.7429 99.6919 91.0378 99.3117 91.175 98.8189H93.5C93.2805 99.9594 92.7319 100.853 91.854 101.501C90.9898 102.149 89.8925 102.473 88.562 102.473ZM90.2903 94.2147C90.7429 94.6512 90.9693 95.2285 90.9693 95.9466H85.858C85.9095 95.6285 85.9878 95.3399 86.093 95.0807C86.2987 94.5738 86.6005 94.1936 86.9983 93.9402C87.4098 93.6868 87.9104 93.56 88.5003 93.56C89.2547 93.56 89.8513 93.7783 90.2903 94.2147Z" fill="white"/>
</svg>
