<svg width="298" height="388" viewBox="0 0 298 388" fill="none" xmlns="http://www.w3.org/2000/svg">
<path d="M252.831 387.193H32.6859C23.4115 387.193 16.4022 379.605 17.1097 370.331L44.0802 16.8625C44.7878 7.58812 52.9547 0 62.2291 0H282.374C291.648 0 298.658 7.58812 297.95 16.8625L270.98 370.331C270.272 379.605 262.105 387.193 252.831 387.193Z" fill="#18234F" fill-opacity="0.9"/>
<path opacity="0.5" d="M252.831 387.193H32.6859C23.4115 387.193 16.4022 379.605 17.1097 370.331L44.0802 16.8625C44.7878 7.58812 52.9547 0 62.2291 0H282.374C291.648 0 298.658 7.58812 297.95 16.8625L270.98 370.331C270.272 379.605 262.105 387.193 252.831 387.193Z" fill="white"/>
<path d="M249.553 387.193H29.4085C20.1341 387.193 13.1248 379.605 13.8324 370.331L40.8029 16.8625C41.5105 7.58812 49.6774 0 58.9518 0H279.097C288.371 0 295.38 7.58812 294.671 16.8625L267.701 370.331C266.995 379.605 258.828 387.193 249.553 387.193Z" fill="#18234F" fill-opacity="0.9"/>
<path opacity="0.7" d="M249.553 387.193H29.4085C20.1341 387.193 13.1248 379.605 13.8324 370.331L40.8029 16.8625C41.5105 7.58812 49.6774 0 58.9518 0H279.097C288.371 0 295.38 7.58812 294.671 16.8625L267.701 370.331C266.995 379.605 258.828 387.193 249.553 387.193Z" fill="white"/>
<path d="M29.8381 381.573C23.6394 381.573 18.9819 376.531 19.455 370.332L46.0676 21.5469C46.5407 15.3481 51.9681 10.3057 58.1668 10.3057H278.312C284.51 10.3057 289.168 15.3481 288.695 21.5469L262.082 370.332C261.609 376.531 256.182 381.573 249.983 381.573H29.8381Z" fill="#18234F" fill-opacity="0.9"/>
<path opacity="0.2" d="M248.436 68.9748H90.8935C87.2282 68.9748 84.4589 65.9764 84.7381 62.3111C85.0174 58.6458 88.2449 55.6475 91.9101 55.6475H249.452C253.118 55.6475 255.887 58.6458 255.608 62.3111C255.329 65.9764 252.1 68.9748 248.436 68.9748Z" fill="black"/>
<path opacity="0.3" d="M181.224 6.86941H155.775C154.873 6.86941 154.192 6.13201 154.261 5.2306C154.33 4.32919 155.123 3.5918 156.026 3.5918H181.475C182.377 3.5918 183.058 4.32919 182.989 5.2306C182.92 6.13201 182.126 6.86941 181.224 6.86941Z" fill="#18234F" fill-opacity="0.9"/>
<path d="M90.1999 62.313C90.978 52.1196 83.3424 43.874 73.168 43.874H233.108C243.283 43.874 250.918 52.1209 250.14 62.313H90.1999Z" fill="#F0F0F0"/>
<path d="M73.1673 43.874C62.9928 43.874 54.0994 52.1209 53.3213 62.313L36.9319 277.117C36.1538 287.311 27.2604 295.556 17.0859 295.556H177.026C187.201 295.556 196.095 287.309 196.872 277.117L213.261 62.313C214.04 52.1196 222.933 43.874 233.107 43.874H73.1673Z" fill="white"/>
<path d="M159.993 277.118C159.215 287.312 166.851 295.557 177.025 295.557H17.0865C6.91207 295.557 -0.723501 287.31 0.0545593 277.118H159.993Z" fill="#F0F0F0"/>
<path d="M66.3738 272.877C66.973 265.027 64.5086 258.677 56.6738 258.677H179.839C187.674 258.677 193.569 265.847 189.539 272.877H66.3738Z" fill="#E0E0E0"/>
<path d="M159.993 277.118C160.771 266.924 169.664 258.679 179.839 258.679H19.8987C9.72427 258.679 0.829439 266.926 0.0527344 277.118H159.993Z" fill="#F0F0F0"/>
<path d="M235.622 330.373H52.012C49.3497 330.373 47.3382 328.195 47.5415 325.533C47.7448 322.871 50.0885 320.692 52.7507 320.692H236.361C239.023 320.692 241.034 322.871 240.831 325.533C240.628 328.195 238.284 330.373 235.622 330.373Z" fill="white"/>
<path d="M142.9 353.637H50.2366C47.5744 353.637 45.5628 351.459 45.7661 348.797C45.9694 346.134 48.3131 343.956 50.9753 343.956H143.639C146.301 343.956 148.313 346.134 148.11 348.797C147.906 351.459 145.561 353.637 142.9 353.637Z" fill="white"/>
<path d="M207.052 353.637H169.518C166.856 353.637 164.844 351.459 165.047 348.797C165.251 346.134 167.594 343.956 170.257 343.956H207.791C210.453 343.956 212.464 346.134 212.261 348.797C212.058 351.459 209.714 353.637 207.052 353.637Z" fill="white"/>
<path d="M244.589 261.593L235.011 263.093C234.627 261.89 234.264 261.053 233.917 260.587C233.571 260.121 232.975 259.65 232.129 259.175L231.568 266.535C236.618 267.911 239.952 269.363 241.565 270.889C243.698 272.942 244.643 275.548 244.403 278.705C244.262 280.555 243.721 282.252 242.78 283.796C241.84 285.341 240.69 286.63 239.331 287.666C237.971 288.701 236.553 289.452 235.076 289.919C233.598 290.385 231.813 290.662 229.72 290.746L229.353 295.554H225.639L226.006 290.746C223.53 290.525 221.538 290.122 220.031 289.538C218.524 288.952 217.245 288.143 216.196 287.109C215.147 286.075 214.364 284.959 213.843 283.763C213.324 282.568 212.977 281.122 212.801 279.426L223.17 278.23C223.348 279.91 223.667 281.121 224.126 281.868C224.587 282.615 225.388 283.277 226.532 283.853L227.218 274.863C223.864 273.913 221.498 273.089 220.118 272.392C218.738 271.697 217.58 270.581 216.646 269.044C215.712 267.508 215.329 265.638 215.497 263.429C215.727 260.408 216.976 257.884 219.242 255.855C221.509 253.827 224.736 252.703 228.926 252.482L229.118 249.964H232.832L232.64 252.482C236.42 252.72 239.258 253.618 241.147 255.18C243.038 256.741 244.185 258.879 244.589 261.593ZM228.424 259.048C227.311 259.406 226.523 259.85 226.059 260.378C225.594 260.907 225.335 261.529 225.281 262.243C225.224 262.993 225.391 263.645 225.776 264.199C226.166 264.754 226.882 265.217 227.926 265.59L228.424 259.048ZM230.226 284.108C231.692 283.785 232.789 283.252 233.514 282.512C234.241 281.772 234.639 280.943 234.708 280.024C234.769 279.224 234.542 278.488 234.025 277.815C233.513 277.143 232.453 276.518 230.848 275.942L230.226 284.108Z" fill="white"/>
<path d="M64.0319 103.67H68.5905L67.4668 118.389H62.9082L64.0319 103.67Z" fill="#18234F" fill-opacity="0.9"/>
<path d="M71.8829 103.67H76.1297L81.0501 111.812L81.671 103.67H85.9584L84.8347 118.389H80.5473L75.6512 110.308L75.0344 118.389H70.7578L71.8829 103.67Z" fill="#18234F" fill-opacity="0.9"/>
<path d="M87.5371 103.67H92.2909L94.7959 114.262L98.8732 103.67H103.49L96.9023 118.389H91.9723L87.5371 103.67Z" fill="#18234F" fill-opacity="0.9"/>
<path d="M103.137 111.038C103.32 108.635 104.132 106.764 105.573 105.426C107.014 104.087 108.929 103.419 111.319 103.419C113.768 103.419 115.606 104.076 116.83 105.391C118.056 106.706 118.578 108.548 118.396 110.918C118.264 112.638 117.867 114.049 117.204 115.149C116.542 116.25 115.639 117.107 114.499 117.72C113.358 118.332 111.971 118.639 110.337 118.639C108.677 118.639 107.324 118.374 106.276 117.846C105.229 117.317 104.411 116.481 103.823 115.335C103.235 114.19 103.007 112.758 103.137 111.038ZM107.683 111.059C107.57 112.544 107.765 113.612 108.268 114.262C108.771 114.911 109.497 115.235 110.447 115.235C111.425 115.235 112.205 114.918 112.79 114.281C113.374 113.645 113.729 112.504 113.854 110.857C113.959 109.471 113.757 108.459 113.248 107.819C112.738 107.18 112.003 106.861 111.046 106.861C110.13 106.861 109.368 107.186 108.764 107.835C108.158 108.484 107.799 109.559 107.683 111.059Z" fill="#18234F" fill-opacity="0.9"/>
<path d="M121.581 103.67H126.139L125.016 118.389H120.457L121.581 103.67Z" fill="#18234F" fill-opacity="0.9"/>
<path d="M138.539 112.365L142.434 113.57C142.081 114.688 141.588 115.622 140.955 116.371C140.322 117.121 139.564 117.686 138.682 118.068C137.799 118.449 136.699 118.641 135.38 118.641C133.78 118.641 132.491 118.407 131.512 117.944C130.534 117.479 129.72 116.661 129.074 115.49C128.427 114.321 128.174 112.821 128.312 110.995C128.498 108.561 129.288 106.689 130.683 105.382C132.078 104.074 133.96 103.421 136.33 103.421C138.184 103.421 139.613 103.795 140.616 104.546C141.619 105.296 142.32 106.446 142.717 108L138.633 108.893C138.527 108.444 138.404 108.116 138.265 107.909C138.038 107.561 137.746 107.294 137.393 107.107C137.039 106.919 136.633 106.826 136.179 106.826C135.149 106.826 134.326 107.241 133.715 108.069C133.253 108.684 132.972 109.649 132.872 110.967C132.747 112.598 132.91 113.716 133.359 114.322C133.807 114.926 134.481 115.229 135.378 115.229C136.248 115.229 136.925 114.985 137.407 114.495C137.891 114.003 138.268 113.294 138.539 112.365Z" fill="#18234F" fill-opacity="0.9"/>
<path d="M145.389 103.67H157.578L157.338 106.812H149.708L149.529 109.152H156.608L156.378 112.154H149.3L149.079 115.056H156.93L156.675 118.389H144.266L145.389 103.67Z" fill="#18234F" fill-opacity="0.9"/>
<path d="M193.672 137.395H61.4609L61.7415 133.726H193.952L193.672 137.395Z" fill="#18234F" fill-opacity="0.9"/>
<path d="M193.671 137.395H61.4602L60.6035 148.621H192.814L193.671 137.395Z" fill="#F0F0F0"/>
<path d="M191.956 159.849H59.7454L58.8887 171.075H191.099L191.956 159.849Z" fill="#F0F0F0"/>
<path d="M190.243 182.304H58.0325L57.1758 193.53H189.386L190.243 182.304Z" fill="#F0F0F0"/>
<path d="M188.528 204.757H56.3176L55.4609 215.984H187.672L188.528 204.757Z" fill="#F0F0F0"/>
<path d="M186.537 230.878H54.3262L54.6054 227.209H186.816L186.537 230.878Z" fill="#18234F" fill-opacity="0.9"/>
<path d="M171.411 68.9766H198.889L197.638 85.3701H170.16L171.411 68.9766Z" fill="#F0F0F0"/>
</svg>
