<svg width="121" height="22" viewBox="0 0 121 22" fill="none" xmlns="http://www.w3.org/2000/svg">
<path d="M47.862 21.6225H44.3592V0.016759H47.862V21.6225Z" fill="#EE2D77"/>
<path d="M55.1274 21.6225H51.6246V0.016759H55.1274V21.6225Z" fill="#EE2D77"/>
<path d="M63.0876 22C61.5823 22 60.3858 21.5934 59.498 20.7803C58.6295 19.9478 58.1953 18.8637 58.1953 17.5278C58.1953 16.2114 58.6488 15.1659 59.5559 14.3915C60.4823 13.5978 61.7946 13.1331 63.4929 12.9976L67.7773 12.6491V12.3297C67.7773 11.6715 67.6519 11.1487 67.401 10.7615C67.1694 10.355 66.8316 10.0646 66.3878 9.89034C65.9439 9.69674 65.4228 9.59994 64.8245 9.59994C63.7824 9.59994 62.9815 9.8129 62.4218 10.2388C61.8621 10.6454 61.5823 11.2262 61.5823 11.9812H58.5716C58.5716 10.9358 58.8322 10.0355 59.3533 9.2805C59.8936 8.5061 60.6463 7.90595 61.6113 7.48003C62.5955 7.05411 63.7245 6.84115 64.9982 6.84115C66.2913 6.84115 67.401 7.07347 68.3273 7.53811C69.2537 7.98339 69.9677 8.66098 70.4695 9.5709C70.9713 10.4615 71.2222 11.5747 71.2222 12.9105V21.6225H68.1247L67.8641 19.5026C67.5554 20.2382 66.9571 20.8384 66.0693 21.303C65.2009 21.7677 64.207 22 63.0876 22ZM64.2166 19.3283C65.3167 19.3283 66.1851 19.0186 66.822 18.399C67.4782 17.7795 67.8063 16.918 67.8063 15.8145V15.0595L64.8245 15.2918C63.7245 15.3886 62.9429 15.6209 62.4797 15.9887C62.0165 16.3372 61.7849 16.8018 61.7849 17.3826C61.7849 18.0215 61.9972 18.5055 62.4218 18.8346C62.8464 19.1638 63.4447 19.3283 64.2166 19.3283Z" fill="#EE2D77"/>
<path d="M78.2235 21.6225H74.6917V7.27675H77.9629L78.2524 9.1353C78.6963 8.41898 79.3235 7.85754 80.1341 7.45098C80.9639 7.04443 81.8613 6.84115 82.8263 6.84115C84.6211 6.84115 85.972 7.37355 86.8791 8.43834C87.8055 9.50314 88.2686 10.9551 88.2686 12.7943V21.6225H84.7369V13.6365C84.7369 12.4362 84.4667 11.5456 83.9263 10.9648C83.386 10.3647 82.6526 10.0646 81.7262 10.0646C80.6262 10.0646 79.7674 10.4131 79.1498 11.11C78.5322 11.807 78.2235 12.7363 78.2235 13.8979V21.6225Z" fill="#EE2D77"/>
<path d="M90.8991 14.4206C90.8991 12.9492 91.1982 11.6424 91.7965 10.5002C92.4141 9.35794 93.2536 8.46738 94.315 7.82851C95.3958 7.17027 96.6406 6.84115 98.0494 6.84115C99.9986 6.84115 101.591 7.35419 102.826 8.38026C104.08 9.38698 104.804 10.7519 104.997 12.4749H101.465C101.253 11.6618 100.857 11.0519 100.278 10.6454C99.7188 10.2195 99.0144 10.0065 98.1652 10.0065C97.4318 10.0065 96.7757 10.1904 96.1967 10.5583C95.637 10.9067 95.2028 11.4101 94.894 12.0683C94.5852 12.7266 94.4308 13.5107 94.4308 14.4206C94.4308 15.3305 94.5756 16.1146 94.8651 16.7728C95.1545 17.431 95.5695 17.9441 96.1098 18.3119C96.6695 18.6604 97.3257 18.8346 98.0784 18.8346C98.9661 18.8346 99.6995 18.6217 100.278 18.1958C100.877 17.7698 101.272 17.16 101.465 16.3662H105.026C104.872 17.4891 104.476 18.4765 103.839 19.3283C103.222 20.1608 102.421 20.819 101.436 21.303C100.452 21.7677 99.3328 22 98.0784 22C96.6309 22 95.3668 21.6902 94.2861 21.0707C93.2053 20.4318 92.3658 19.551 91.7676 18.4281C91.1886 17.2858 90.8991 15.95 90.8991 14.4206Z" fill="#EE2D77"/>
<path fill-rule="evenodd" clip-rule="evenodd" d="M0.2889 6.28892C0.2889 7.93118 0.751141 9.26432 1.67562 10.2883C2.6001 11.293 3.95793 11.9885 5.74912 12.375L9.10036 13.1285C9.96706 13.3024 10.593 13.6115 10.9782 14.0559C11.3634 14.4809 11.556 15.0606 11.556 15.7947C11.556 16.6449 11.1901 17.3307 10.4582 17.8524C9.74557 18.3547 8.77294 18.6059 7.5403 18.6059C6.36544 18.6059 5.43132 18.3547 4.73796 17.8524C4.06386 17.3307 3.71718 16.6255 3.69792 15.7368C3.69792 15.7368 3.87126 14.0559 1.97094 14.0559C0.0706262 14.0559 0 15.7368 0 15.7368C0.03852 16.9926 0.36594 18.0843 0.982261 19.0117C1.61784 19.9391 2.49417 20.6636 3.61125 21.1852C4.72833 21.6876 6.02839 21.9388 7.51141 21.9388C9.07147 21.9388 10.4293 21.6779 11.5849 21.1563C12.7598 20.6153 13.665 19.8521 14.3006 18.8667C14.9361 17.8814 15.2539 16.7415 15.2539 15.447C15.2539 13.8627 14.811 12.6068 13.925 11.6794C13.039 10.7327 11.6908 10.0661 9.88039 9.67972L6.55804 8.9262C5.67208 8.71368 5.01723 8.39488 4.59351 7.96983C4.21002 7.54848 4.00833 6.98818 3.98845 6.28892H0.2889ZM1.24227 3.01404C1.01477 3.35291 0.827987 3.71035 0.681918 4.08635H4.99797C5.69133 3.56468 6.60619 3.30385 7.74253 3.30385C8.78257 3.30385 9.61075 3.56468 10.2271 4.08635C10.8434 4.58869 11.1708 5.2939 11.2093 6.20197C11.2093 6.20197 11.2029 7.96983 13.206 7.96983C14.9073 7.96983 14.9073 6.20197 14.9073 6.20197C14.8687 4.9268 14.5509 3.82552 13.9539 2.89812C13.3761 1.97072 12.5575 1.25585 11.4982 0.75351C10.4582 0.25117 9.22555 0 7.80031 0C6.31729 0 5.0076 0.270491 3.87126 0.811473C2.75418 1.33313 1.87785 2.06732 1.24227 3.01404Z" fill="#EE2D77"/>
<path d="M26.1042 7.27675V10.2388H23.3541V21.6225H19.8223V10.2388H17.0722V7.27675H19.8223V2.80459H23.3541V7.27675H26.1042Z" fill="#EE2D77"/>
<path fill-rule="evenodd" clip-rule="evenodd" d="M114.052 22C112.644 22 111.389 21.6806 110.289 21.0417C109.208 20.3834 108.359 19.4929 107.742 18.37C107.124 17.2278 106.815 15.921 106.815 14.4496C106.815 12.9589 107.114 11.6424 107.713 10.5002C108.311 9.35794 109.15 8.46738 110.231 7.82851C111.312 7.17027 112.547 6.84115 113.937 6.84115C115.384 6.84115 116.629 7.15091 117.671 7.77043C118.713 8.37058 119.514 9.21274 120.074 10.2969C120.653 11.3811 120.942 12.6782 120.942 14.1883V15.2627L110.185 15.2882C110.291 16.4004 110.606 17.2728 111.129 17.9054C111.804 18.6991 112.798 19.096 114.11 19.096C115.075 19.096 115.866 18.9121 116.484 18.5442C117.121 18.1764 117.536 17.6537 117.729 16.9761H121C120.691 18.5442 119.919 19.7736 118.684 20.6642C117.468 21.5547 115.924 22 114.052 22ZM116.484 10.6454C117.121 11.2455 117.439 12.0393 117.439 13.0267H110.248C110.32 12.5893 110.43 12.1924 110.579 11.836C110.868 11.1391 111.293 10.6163 111.852 10.2679C112.431 9.91938 113.136 9.74514 113.965 9.74514C115.027 9.74514 115.866 10.0452 116.484 10.6454Z" fill="#EE2D77"/>
<path fill-rule="evenodd" clip-rule="evenodd" d="M34.585 22C33.1762 22 31.9217 21.6806 30.8217 21.0417C29.7409 20.3834 28.8918 19.4929 28.2742 18.37C27.6566 17.2278 27.3478 15.921 27.3478 14.4496C27.3478 12.9589 27.647 11.6424 28.2453 10.5002C28.8435 9.35794 29.683 8.46738 30.7638 7.82851C31.8445 7.17027 33.0797 6.84115 34.4692 6.84115C35.9166 6.84115 37.1614 7.15091 38.2036 7.77043C39.2457 8.37058 40.0466 9.21274 40.6063 10.2969C41.1853 11.3811 41.4748 12.6782 41.4748 14.1883V15.2627H37.972H34.3436V12.375L30.7151 11V12.375V15.2627C30.8189 16.3871 31.1343 17.2679 31.6612 17.9054C32.3367 18.6991 33.3306 19.096 34.6429 19.096C35.6079 19.096 36.3991 18.9121 37.0167 18.5442C37.6536 18.1764 38.0685 17.6537 38.2615 16.9761H41.5327C41.2239 18.5442 40.4519 19.7736 39.2168 20.6642C38.0009 21.5547 36.457 22 34.585 22Z" fill="#EE2D77"/>
</svg>
